<?xml version="1.0" standalone="no"?>
<!DOCTYPE svg PUBLIC "-//W3C//DTD SVG 20010904//EN"
 "http://www.w3.org/TR/2001/REC-SVG-20010904/DTD/svg10.dtd">
<svg version="1.0" xmlns="http://www.w3.org/2000/svg"
 width="4500.000000pt" height="4500.000000pt" viewBox="0 0 4500.000000 4500.000000"
 preserveAspectRatio="xMidYMid meet">

<g transform="translate(0.000000,4500.000000) scale(0.100000,-0.100000)"
fill="#000000" stroke="none">
<path d="M21565 35409 c-3689 -147 -7121 -1556 -9877 -4056 -370 -336 -916
-892 -1259 -1283 -1277 -1457 -2277 -3128 -2949 -4925 -1206 -3229 -1288
-6655 -233 -9849 52 -160 134 -392 180 -516 62 -165 86 -243 90 -291 21 -245
-216 -457 -459 -409 -47 9 -471 211 -1765 841 -1063 517 -1715 829 -1733 829
-59 0 -60 -8 -60 -395 0 -1865 354 -3819 1001 -5534 62 -163 81 -193 144 -222
39 -18 185 -19 4500 -19 4330 0 4461 1 4501 19 69 31 498 503 778 854 243 305
504 675 703 997 117 189 294 499 346 609 41 83 42 89 42 186 0 167 -2 170
-382 550 -324 324 -459 470 -683 740 -1187 1425 -1944 3117 -2204 4925 -79
548 -101 867 -101 1475 1 588 23 921 96 1445 406 2899 1998 5533 4335 7173
1460 1024 3136 1625 4969 1782 479 41 1335 46 1780 11 1685 -134 3161 -596
4525 -1419 2269 -1369 3942 -3626 4654 -6282 310 -1156 422 -2408 321 -3585
-177 -2048 -956 -3942 -2275 -5525 -225 -271 -359 -416 -683 -740 -361 -361
-373 -378 -384 -518 -8 -106 7 -153 104 -333 222 -414 531 -892 836 -1294 323
-426 850 -1019 937 -1054 37 -15 400 -16 4498 -16 4302 0 4458 1 4497 19 61
27 88 67 140 208 668 1805 1005 3665 1005 5543 0 393 -1 400 -61 400 -18 0
-732 -343 -1951 -937 l-1923 -938 -66 0 c-56 0 -72 4 -106 28 -52 36 -85 96
-86 155 0 36 17 89 76 232 1150 2796 1410 5826 752 8785 -595 2674 -1879 5137
-3762 7217 -203 225 -839 861 -1061 1062 -1516 1370 -3189 2394 -5057 3093
-1538 576 -3152 895 -4860 963 -289 11 -1535 11 -1830 -1z"/>
<path d="M21880 28983 c-569 -30 -1162 -118 -1677 -247 -1343 -338 -2553 -970
-3563 -1861 -183 -161 -549 -528 -704 -705 -930 -1060 -1566 -2310 -1890
-3711 -207 -899 -270 -1875 -180 -2814 135 -1417 631 -2797 1422 -3960 296
-435 612 -816 1002 -1205 1027 -1028 2234 -1741 3620 -2139 510 -146 1044
-244 1630 -298 277 -25 1100 -26 1370 0 1141 108 2145 396 3105 891 463 239
506 274 506 412 0 131 -92 223 -224 224 -52 0 -74 -8 -234 -86 -1467 -714
-3108 -934 -4688 -627 -2552 495 -4668 2299 -5550 4733 -208 574 -340 1175
-400 1820 -22 232 -30 789 -16 1035 56 960 301 1870 738 2740 l70 139 76 -149
c242 -477 514 -863 946 -1345 l50 -55 -40 -135 c-205 -698 -299 -1406 -286
-2145 10 -555 66 -993 193 -1505 138 -558 362 -1117 635 -1585 77 -132 103
-157 171 -162 131 -10 201 100 153 238 -38 105 -138 489 -189 716 -289 1302
-282 2592 20 3856 14 59 27 107 29 107 1 0 52 -37 111 -81 338 -253 804 -525
1207 -705 427 -191 921 -350 1367 -438 247 -50 272 -52 325 -32 121 47 160
203 74 300 -23 26 -62 47 -170 90 -571 229 -1111 529 -1562 867 -209 157 -404
326 -605 523 -166 164 -400 417 -425 462 -5 8 17 73 57 171 361 884 830 1664
1501 2499 94 116 175 226 182 247 19 53 7 102 -34 148 -43 47 -96 64 -151 49
-67 -18 -351 -225 -607 -444 -545 -467 -1064 -1115 -1425 -1784 -30 -56 -58
-98 -61 -94 -16 16 -171 336 -219 452 -109 259 -199 535 -279 855 -32 131
-101 443 -101 460 0 3 39 49 87 102 302 342 609 632 968 918 824 656 1772
1129 2750 1371 1565 387 3154 263 4630 -362 204 -87 616 -294 810 -408 1889
-1111 3204 -2972 3639 -5153 49 -244 81 -453 106 -700 26 -248 34 -286 73
-330 83 -94 242 -100 324 -11 62 66 76 198 77 723 0 491 -25 812 -100 1265
-376 2271 -1715 4289 -3669 5530 -1246 790 -2640 1240 -4125 1330 -147 9 -707
11 -850 3z"/>
</g>
</svg>
