<?xml version="1.0" standalone="no"?>
<!DOCTYPE svg PUBLIC "-//W3C//DTD SVG 20010904//EN"
 "http://www.w3.org/TR/2001/REC-SVG-20010904/DTD/svg10.dtd">
<svg version="1.0" xmlns="http://www.w3.org/2000/svg"
 width="640.000000pt" height="640.000000pt" viewBox="0 0 640.000000 640.000000"
 preserveAspectRatio="xMidYMid meet">

<g transform="translate(0.000000,640.000000) scale(0.100000,-0.100000)"
fill="#000000" stroke="none">
<path d="M2905 6114 c-455 -61 -886 -266 -1222 -578 -259 -241 -477 -582 -587
-917 -155 -470 -153 -941 6 -1427 16 -51 28 -96 25 -98 -3 -3 -105 60 -227
140 -121 80 -226 146 -231 146 -7 0 -8 -31 -4 -87 3 -49 12 -218 20 -376 8
-158 17 -292 20 -297 10 -16 1242 -13 1248 3 5 16 -15 102 -35 147 -9 19 -39
62 -67 95 -180 211 -290 456 -348 773 -27 147 -24 431 5 577 96 482 350 868
742 1128 293 194 600 287 950 287 982 0 1763 -818 1717 -1796 -8 -152 -43
-342 -87 -470 -61 -176 -200 -430 -266 -486 -48 -42 -115 -137 -129 -185 -28
-92 -98 -83 625 -83 504 0 642 3 645 13 5 14 35 625 35 705 0 28 -3 52 -7 52
-5 0 -109 -67 -233 -149 -124 -82 -228 -147 -232 -145 -4 3 -1 19 7 38 34 80
87 279 112 414 23 129 26 174 27 372 1 276 -25 455 -101 685 -266 817 -966
1401 -1821 1519 -139 20 -445 20 -587 0z"/>
<path d="M3030 5444 c-227 -42 -326 -72 -464 -140 -414 -206 -695 -572 -793
-1034 -27 -130 -25 -432 5 -560 49 -211 112 -361 224 -531 81 -123 262 -305
383 -385 l90 -59 112 0 c62 0 113 -3 113 -7 0 -4 7 -5 15 -1 10 3 -17 22 -79
54 -347 175 -585 448 -700 802 -49 149 -61 230 -61 417 0 181 13 264 67 425
57 170 158 339 282 473 73 78 185 176 193 169 2 -3 -6 -29 -18 -58 -65 -163
-102 -316 -115 -471 l-7 -83 -68 -75 c-103 -113 -151 -182 -145 -205 3 -11 6
-26 6 -32 0 -7 5 -13 11 -13 6 0 8 7 5 16 -3 8 -2 13 2 10 5 -3 45 40 90 94
45 55 86 100 91 100 4 0 11 -33 14 -72 12 -136 38 -263 82 -392 l43 -129 -44
-91 c-24 -50 -46 -107 -49 -126 -3 -19 -3 -29 1 -23 4 10 10 9 22 -4 15 -15
19 -10 56 71 22 47 44 85 50 83 6 -2 32 -41 58 -87 89 -154 223 -315 333 -400
31 -24 57 -41 58 -39 2 2 9 12 16 22 13 16 6 25 -63 88 -124 115 -244 273
-326 430 -23 46 -31 72 -27 90 13 51 291 389 320 389 3 0 34 -41 69 -92 66
-96 217 -258 242 -258 29 0 26 31 -7 63 -111 110 -260 307 -251 332 6 16 130
105 244 176 109 68 287 148 417 189 58 17 104 37 107 46 4 10 1 13 -7 9 -6 -4
-3 1 8 10 56 48 -201 -26 -377 -109 -117 -54 -228 -120 -341 -204 -48 -35 -89
-63 -91 -61 -25 28 -89 193 -121 312 l-24 88 37 23 c101 63 301 138 487 181
141 33 134 30 128 54 -7 28 -51 28 -178 -3 -129 -32 -255 -76 -378 -133 -53
-26 -100 -43 -104 -39 -4 4 -9 65 -11 136 -5 143 13 324 33 344 16 16 153 61
250 82 98 21 321 29 427 15 296 -39 549 -162 777 -375 24 -23 79 -85 122 -139
68 -85 80 -95 88 -79 6 11 6 23 1 28 -5 5 -15 29 -24 54 -12 34 -12 46 -3 52
7 4 7 8 2 8 -6 0 -16 9 -23 21 -8 12 -9 18 -3 14 27 -16 7 25 -38 80 -166 202
-460 370 -771 440 -73 16 -410 30 -470 19z m-417 -311 c-5 -32 -8 -144 -7
-250 l1 -191 -39 -22 c-21 -12 -74 -48 -118 -81 -44 -32 -85 -59 -90 -59 -6 0
-8 10 -6 23 3 12 8 45 11 72 24 191 150 515 214 550 40 22 42 19 34 -42z m27
-555 c16 -70 75 -228 112 -302 l30 -59 -85 -86 c-92 -94 -175 -192 -214 -254
-13 -21 -28 -35 -33 -31 -16 18 -62 182 -81 292 -10 63 -19 154 -19 202 l0 88
53 45 c54 47 207 156 219 157 3 0 11 -24 18 -52z"/>
<path d="M915 2256 c-73 -19 -113 -38 -181 -88 -178 -133 -226 -384 -110 -582
33 -56 134 -148 195 -177 82 -38 188 -55 274 -42 139 20 279 110 345 222 98
168 76 382 -55 522 -124 133 -299 187 -468 145z m270 -136 c64 -31 134 -101
165 -165 21 -42 25 -65 25 -140 0 -75 -4 -98 -24 -140 -34 -69 -100 -131 -177
-167 -60 -28 -71 -30 -153 -26 -74 3 -99 9 -154 36 -172 85 -239 280 -155 450
30 59 116 136 181 161 76 30 222 26 292 -9z"/>
<path d="M4215 2256 c-155 -38 -289 -169 -330 -320 -27 -98 -18 -212 23 -300
98 -208 323 -313 565 -261 92 19 150 50 213 113 78 78 131 205 122 294 l-3 33
-177 3 -178 2 0 -55 0 -55 109 0 c61 0 112 -4 116 -10 9 -14 -39 -101 -77
-137 -62 -60 -119 -78 -243 -78 -98 0 -116 3 -167 27 -72 34 -137 93 -168 155
-19 36 -26 68 -28 130 -6 117 14 170 92 249 77 78 141 104 255 104 99 0 165
-20 245 -74 l64 -44 36 30 c20 16 36 36 36 43 0 17 -87 84 -149 115 -91 46
-251 62 -356 36z"/>
<path d="M2017 2244 c-27 -86 -217 -823 -217 -840 0 -18 83 -19 98 -1 5 6 39
124 74 261 36 138 69 251 75 253 5 2 19 -18 30 -44 96 -223 203 -485 203 -493
0 -35 25 15 104 203 138 328 146 345 157 326 5 -9 36 -121 69 -249 33 -127 65
-240 71 -251 8 -16 19 -19 57 -17 41 3 47 6 44 23 -4 23 -210 812 -218 835 -8
21 -8 20 -143 -305 -115 -277 -127 -303 -134 -294 -2 2 -55 126 -117 274 -138
331 -145 346 -153 319z"/>
<path d="M5460 2250 c0 -6 -32 -81 -71 -168 -221 -488 -306 -682 -301 -686 11
-12 101 -6 109 7 4 6 27 55 50 107 l41 95 186 3 185 2 41 -85 c22 -48 40 -90
40 -95 0 -23 34 -40 81 -40 27 0 49 4 49 9 0 8 -86 200 -253 562 -46 101 -96
210 -110 242 -23 51 -47 75 -47 47z m87 -391 c34 -74 62 -140 63 -146 0 -10
-34 -13 -136 -13 -125 0 -136 1 -132 18 12 46 124 281 133 278 6 -1 38 -63 72
-137z"/>
<path d="M3100 1815 l0 -425 233 2 232 3 3 52 3 53 -178 2 -178 3 -3 147 -3
148 178 2 178 3 3 53 3 52 -180 0 -181 0 0 110 0 110 178 2 177 3 3 53 3 52
-235 0 -236 0 0 -425z"/>
<path d="M544 1077 c-2 -7 -3 -76 -2 -152 l3 -140 28 -3 27 -3 0 155 0 156
-25 0 c-14 0 -28 -6 -31 -13z"/>
<path d="M834 1076 c-84 -37 -117 -165 -61 -237 44 -57 137 -74 215 -39 l42
19 0 66 0 65 -55 0 c-30 0 -58 0 -62 0 -5 0 -8 -10 -8 -22 0 -19 6 -24 33 -26
29 -3 33 -6 30 -30 -7 -59 -125 -48 -148 14 -36 94 31 171 122 139 38 -13 43
-12 54 3 20 26 17 32 -21 48 -43 17 -100 18 -141 0z"/>
<path d="M1174 1077 c-2 -7 -3 -76 -2 -152 l3 -140 105 0 105 0 0 25 c0 24 -3
25 -75 30 l-75 5 -3 123 -3 122 -25 0 c-13 0 -27 -6 -30 -13z"/>
<path d="M1522 938 l3 -153 110 0 110 0 0 25 c0 27 4 26 -102 29 l-63 1 0 35
0 35 70 0 c68 0 70 1 70 25 0 27 2 26 -90 29 -43 1 -45 2 -48 34 l-3 32 80 0
81 0 0 30 0 30 -110 0 -111 0 3 -152z"/>
<path d="M1940 1083 c-36 -13 -60 -47 -60 -83 0 -42 19 -64 71 -81 75 -24 89
-32 89 -50 0 -29 -34 -41 -80 -29 -21 6 -42 15 -46 21 -6 10 -44 -16 -44 -32
0 -4 21 -17 46 -29 90 -44 184 -6 184 75 0 42 -30 68 -106 90 -47 14 -55 19
-52 38 2 18 11 23 41 25 21 2 45 -2 53 -9 16 -13 44 3 44 27 0 30 -92 55 -140
37z"/>
<path d="M2244 1077 c-2 -7 -3 -76 -2 -152 l3 -140 25 0 25 0 3 153 3 152 -26
0 c-14 0 -28 -6 -31 -13z"/>
<path d="M2501 947 c-33 -80 -61 -150 -61 -156 0 -6 11 -11 26 -11 19 0 28 8
40 35 l14 35 70 0 70 0 14 -35 c15 -36 51 -49 62 -22 2 7 -22 76 -55 152 -56
131 -61 140 -89 143 -29 3 -30 1 -91 -141z m114 13 c11 -24 15 -44 9 -49 -10
-10 -74 -2 -74 9 0 16 31 80 39 80 4 0 16 -18 26 -40z"/>
<path d="M3076 1082 c-6 -10 -5 -261 1 -284 4 -15 16 -18 76 -18 40 0 89 5
109 10 68 19 88 81 42 127 -23 23 -24 27 -10 42 18 20 21 63 6 91 -6 11 -27
24 -48 30 -43 12 -169 14 -176 2z m172 -81 c5 -30 -12 -41 -65 -41 -48 0 -56
8 -47 45 6 24 10 26 58 23 45 -3 51 -6 54 -27z m10 -103 c17 -17 15 -45 -4
-52 -9 -3 -37 -6 -64 -6 -49 0 -60 9 -60 51 0 17 7 19 58 19 32 0 63 -5 70
-12z"/>
<path d="M3565 1066 c-30 -45 -116 -258 -111 -272 11 -29 45 -14 63 29 12 26
16 27 82 27 67 0 69 -1 79 -29 6 -16 20 -32 32 -36 46 -15 43 10 -16 146 -31
74 -61 140 -67 147 -15 19 -45 14 -62 -12z m53 -93 c5 -16 13 -36 17 -45 6
-15 1 -18 -34 -18 -46 0 -47 3 -26 54 18 43 30 45 43 9z"/>
<path d="M3880 985 c0 -167 33 -212 149 -203 47 4 59 10 83 39 27 32 28 37 28
152 l0 118 -27 -3 -28 -3 -5 -112 c-3 -62 -10 -117 -15 -122 -6 -6 -25 -13
-42 -17 -26 -5 -37 -1 -57 19 -25 25 -26 32 -26 132 l0 105 -30 0 -30 0 0
-105z"/>
<path d="M4277 1084 c-4 -4 -7 -18 -7 -31 0 -21 5 -23 45 -23 l44 0 3 -122 3
-123 27 -3 27 -3 3 123 3 123 45 5 c40 4 45 8 45 30 l0 25 -116 3 c-63 1 -118
-1 -122 -4z"/>
<path d="M4654 1077 c-2 -7 -3 -76 -2 -152 l3 -140 25 0 25 0 3 153 3 152 -26
0 c-14 0 -28 -6 -31 -13z"/>
<path d="M4911 1079 c-35 -14 -50 -39 -51 -80 0 -41 19 -63 71 -80 75 -24 89
-32 89 -50 0 -35 -41 -44 -93 -21 -43 19 -46 19 -61 3 -9 -10 -16 -21 -16 -25
0 -15 87 -46 128 -46 57 0 102 41 102 92 0 45 -29 71 -103 92 -50 15 -58 20
-55 39 4 27 46 35 89 16 26 -10 32 -9 44 7 21 28 19 33 -20 50 -39 16 -88 17
-124 3z"/>
<path d="M5200 1060 c0 -29 2 -30 45 -30 l44 0 3 -122 3 -123 25 0 25 0 3 123
3 122 44 0 c43 0 45 1 45 30 l0 30 -120 0 -120 0 0 -30z"/>
<path d="M5680 1087 c0 -2 -27 -65 -60 -141 -33 -76 -60 -145 -60 -152 0 -15
27 -18 47 -6 6 4 16 20 22 35 10 26 14 27 79 27 68 0 68 0 85 -35 16 -34 48
-47 62 -25 6 10 -84 236 -111 278 -9 13 -24 22 -39 22 -14 0 -25 -1 -25 -3z
m56 -132 c15 -45 14 -47 -26 -52 -39 -4 -45 12 -25 61 19 45 33 43 51 -9z"/>
</g>
</svg>
